<svg version="1.1" viewBox="0.0 0.0 453.54330708661416 453.54330708661416" fill="none" stroke="none" stroke-linecap="square" stroke-miterlimit="10" xmlns:xlink="http://www.w3.org/1999/xlink" xmlns="http://www.w3.org/2000/svg"><clipPath id="p.0"><path d="m0 0l453.5433 0l0 453.5433l-453.5433 0l0 -453.5433z" clip-rule="nonzero"/></clipPath><g clip-path="url(#p.0)"><path fill="#000000" fill-opacity="0.0" d="m0 0l453.5433 0l0 453.5433l-453.5433 0z" fill-rule="evenodd"/><path fill="#005490" d="m0 75.592064l0 0c0 -41.748344 33.84372 -75.592064 75.592064 -75.592064l302.35916 0l0 0c20.048279 0 39.27542 7.964141 53.45166 22.140402c14.17627 14.176264 22.140411 33.403397 22.140411 53.45166l0 302.35916c0 41.748352 -33.84372 75.59207 -75.59207 75.59207l-302.35916 0c-41.748344 0 -75.592064 -33.84372 -75.592064 -75.59207z" fill-rule="evenodd"/><path fill="#ffffff" d="m198.79797 86.87514l0 0c1.6768951 -6.260391 8.112839 -9.981697 14.375092 -8.31176l45.35388 12.094368l0 0c3.0072327 0.80192566 5.571411 2.7652817 7.1284485 5.4581375c1.5570068 2.6928635 1.9793396 5.894638 1.1740723 8.900986l-78.9668 294.80942c-1.6768951 6.2604065 -8.112839 9.981689 -14.375092 8.311768l-45.35388 -12.09436c-6.262253 -1.6699524 -9.9794235 -8.098755 -8.302528 -14.359131z" fill-rule="evenodd"/><path fill="#ffffff" d="m74.05265 53.512714l0 0c1.6699371 -6.297043 8.125465 -10.0368805 14.4188385 -8.353161l295.06796 78.942085c3.0221863 0.808548 5.6020203 2.7852402 7.1719666 5.495224c1.5699463 2.7099915 2.0014343 5.9312744 1.1994934 8.955215l-12.09436 45.60585c-1.6699524 6.297043 -8.125488 10.0368805 -14.418854 8.353149l-295.06793 -78.94208c-6.293373 -1.6837158 -10.041409 -8.153404 -8.371475 -14.450447z" fill-rule="evenodd"/><path fill="#ffffff" d="m165.40257 211.62187l0 0c1.6699371 -6.297043 8.124069 -10.031708 14.415726 -8.3415985l169.9718 45.659103c3.0213623 0.811615 5.600403 2.7912598 7.1698 5.5034027c1.5693665 2.7121582 2.0005188 5.934662 1.1985779 8.958618l-12.09436 45.605835c-1.6699524 6.297058 -8.124084 10.031708 -14.415741 8.341583l-169.9718 -45.65909c-6.2916565 -1.6901245 -10.0383 -8.164978 -8.368378 -14.462006z" fill-rule="evenodd"/></g></svg>